<svg width="39" height="40" viewBox="0 0 39 40" fill="none" xmlns="http://www.w3.org/2000/svg">
<path d="M19.4998 5.83813C27.1292 5.83813 33.3448 11.3225 33.3448 18.0256C33.3448 24.7288 27.1292 30.2131 19.4998 30.2131C17.9353 30.2386 16.3778 29.9996 14.8929 29.5063L13.0648 28.8725L11.6998 30.2375C10.1922 31.6415 8.56049 32.906 6.82478 34.0156C6.76898 34.0312 6.70997 34.0312 6.65416 34.0156V33.8694C7.94154 30.5226 8.07027 26.841 7.01979 23.4125C6.20122 21.7737 5.74404 19.9782 5.67916 18.1475C5.67916 11.3956 11.8948 5.96001 19.5242 5.96001M19.4998 2.79126C10.1642 2.79126 2.60791 9.64063 2.60791 18.0744C2.66145 20.3063 3.19344 22.5007 4.16791 24.5094C4.93962 27.3103 4.78572 30.2856 3.72916 32.9919C3.51998 33.6309 3.51622 34.3193 3.71842 34.9605C3.92061 35.6017 4.3186 36.1635 4.85647 36.5669C5.39435 36.9703 6.04508 37.1951 6.71727 37.2097C7.38945 37.2242 8.04932 37.0279 8.60416 36.6481C10.4833 35.4232 12.2457 34.0279 13.8692 32.48C15.6813 33.0954 17.5863 33.3923 19.4998 33.3575C28.8354 33.3575 36.3917 26.5081 36.3917 18.0744C36.3917 9.64063 28.8354 2.79126 19.4998 2.79126Z" fill="#F8F8F8"/>
<path d="M12.6751 21.0969C13.7521 21.0969 14.6251 20.2784 14.6251 19.2688C14.6251 18.2592 13.7521 17.4407 12.6751 17.4407C11.5981 17.4407 10.7251 18.2592 10.7251 19.2688C10.7251 20.2784 11.5981 21.0969 12.6751 21.0969Z" fill="#F8F8F8"/>
<path d="M19.4998 21.0969C20.5768 21.0969 21.4498 20.2784 21.4498 19.2688C21.4498 18.2592 20.5768 17.4407 19.4998 17.4407C18.4228 17.4407 17.5498 18.2592 17.5498 19.2688C17.5498 20.2784 18.4228 21.0969 19.4998 21.0969Z" fill="#F8F8F8"/>
<path d="M26.325 21.0969C27.402 21.0969 28.275 20.2784 28.275 19.2688C28.275 18.2592 27.402 17.4407 26.325 17.4407C25.248 17.4407 24.375 18.2592 24.375 19.2688C24.375 20.2784 25.248 21.0969 26.325 21.0969Z" fill="#F8F8F8"/>
</svg>
