<svg width="25" height="26" viewBox="0 0 25 26" fill="none" xmlns="http://www.w3.org/2000/svg">
<path d="M23.7498 18.625V7.375C23.7498 6.3375 22.9123 5.5 21.8748 5.5H4.3623C3.3248 5.5 2.4873 6.3375 2.4873 7.375V18.625C2.4873 19.6625 3.3248 20.5 4.3623 20.5H21.8748C22.9123 20.5 23.7498 19.6625 23.7498 18.625ZM22.1123 7.2375C22.5248 7.65 22.2998 8.075 22.0748 8.2875L16.9998 12.9375L21.8748 18.0125C22.0248 18.1875 22.1248 18.4625 21.9498 18.65C21.7873 18.85 21.4123 18.8375 21.2498 18.7125L15.7873 14.05L13.1123 16.4875L10.4498 14.05L4.9873 18.7125C4.8248 18.8375 4.4498 18.85 4.2873 18.65C4.1123 18.4625 4.2123 18.1875 4.3623 18.0125L9.2373 12.9375L4.1623 8.2875C3.9373 8.075 3.7123 7.65 4.1248 7.2375C4.5373 6.825 4.9623 7.025 5.3123 7.325L13.1123 13.625L20.9248 7.325C21.2748 7.025 21.6998 6.825 22.1123 7.2375Z" fill="#5D5D5D"/>
</svg>
