<svg width="32" height="33" viewBox="0 0 32 33" fill="none" xmlns="http://www.w3.org/2000/svg">
<rect x="1" y="1.5" width="30" height="30" rx="15" fill="white"/>
<rect x="1" y="1.5" width="30" height="30" rx="15" stroke="#FAFAFA" stroke-width="2"/>
<path d="M12.5544 6.10317C10.2849 6.87469 8.32765 8.33908 6.97019 10.2812C5.61272 12.2234 4.92659 14.5409 5.01257 16.8934C5.09855 19.2459 5.95211 21.5094 7.44787 23.3515C8.94364 25.1935 11.0028 26.5169 13.3228 27.1273C15.2037 27.6029 17.1744 27.6238 19.0653 27.1882C20.7783 26.8111 22.3621 26.0046 23.6615 24.8475C25.0138 23.6065 25.9954 22.0278 26.5008 20.281C27.0499 18.3814 27.1476 16.3839 26.7865 14.4415H16.2242V18.7351H22.3412C22.2189 19.4198 21.957 20.0734 21.5709 20.6567C21.1849 21.2399 20.6828 21.7409 20.0946 22.1295C19.3477 22.6139 18.5057 22.9397 17.6226 23.086C16.737 23.2474 15.8286 23.2474 14.943 23.086C14.0453 22.9043 13.1962 22.5413 12.4497 22.02C11.2504 21.188 10.3498 20.0061 9.87659 18.6429C9.39549 17.2541 9.39549 15.7486 9.87659 14.3598C10.2135 13.3864 10.7703 12.5 11.5057 11.767C12.3471 10.9127 13.4125 10.3021 14.5848 10.0021C15.7571 9.70207 16.9911 9.72428 18.1514 10.0663C19.0579 10.3388 19.8868 10.8152 20.5719 11.4575C21.2617 10.7851 21.9502 10.1109 22.6375 9.43504C22.9925 9.07159 23.3793 8.72554 23.7289 8.3534C22.6828 7.3996 21.4551 6.65738 20.1159 6.16925C17.6771 5.30148 15.0086 5.27816 12.5544 6.10317Z" fill="white"/>
<path d="M12.5546 6.10291C15.0086 5.27735 17.677 5.30006 20.116 6.16726C21.4555 6.65871 22.6827 7.4045 23.7273 8.36184C23.3724 8.73398 22.9979 9.08177 22.6359 9.44348C21.9474 10.117 21.2594 10.7883 20.5721 11.4572C19.8869 10.815 19.058 10.3386 18.1516 10.066C16.9917 9.72283 15.7577 9.69933 14.5851 9.99811C13.4124 10.2969 12.3464 10.9064 11.504 11.7598C10.7687 12.4928 10.2118 13.3791 9.87497 14.3526L6.19629 11.5615C7.51304 9.00276 9.7929 7.04548 12.5546 6.10291Z" fill="#E33629"/>
<path d="M5.22004 14.3265C5.41762 13.3662 5.74589 12.4362 6.19606 11.5615L9.87474 14.3595C9.39364 15.7483 9.39364 17.2538 9.87474 18.6426C8.6491 19.5701 7.42288 20.5022 6.19606 21.4389C5.06947 19.2414 4.72588 16.7376 5.22004 14.3265Z" fill="#F8BD00"/>
<path d="M16.2244 14.4396H26.7867C27.1478 16.382 27.05 18.3795 26.501 20.2791C25.9956 22.0259 25.014 23.6046 23.6616 24.8456C22.4745 23.9379 21.2819 23.0371 20.0948 22.1294C20.6833 21.7403 21.1857 21.2388 21.5718 20.655C21.9578 20.0711 22.2196 19.4168 22.3414 18.7314H16.2244C16.2226 17.302 16.2244 15.8708 16.2244 14.4396Z" fill="#587DBD"/>
<path d="M6.19434 21.4389C7.42116 20.5115 8.64738 19.5794 9.87302 18.6426C10.3472 20.0063 11.249 21.1883 12.4497 22.0197C13.1985 22.5386 14.0495 22.8987 14.9483 23.077C15.8339 23.2384 16.7423 23.2384 17.6279 23.077C18.511 22.9307 19.353 22.6049 20.0999 22.1206C21.2871 23.0283 22.4796 23.9291 23.6668 24.8369C22.3676 25.9945 20.7838 26.8017 19.0706 27.1793C17.1797 27.6149 15.209 27.594 13.3281 27.1184C11.8405 26.7292 10.451 26.043 9.2466 25.1029C7.97197 24.111 6.93084 22.8612 6.19434 21.4389Z" fill="#319F43"/>
</svg>
