<svg width="25" height="25" viewBox="0 0 25 25" fill="none" xmlns="http://www.w3.org/2000/svg">
<path d="M19.4335 11.9797V8.17032C19.4335 4.34688 16.3241 1.23672 12.4999 1.23672C8.67568 1.23672 5.56631 4.3461 5.56631 8.17032V11.9797H3.93896V23.7633H21.0608V11.9797H19.4335ZM8.30068 8.17032C8.30068 5.85469 10.1835 3.9711 12.4999 3.9711C14.8163 3.9711 16.6991 5.85391 16.6991 8.17032V11.9797H8.30068V8.17032ZM14.2749 21.0594H10.7241L11.6788 18.1945C11.3691 18.0424 11.108 17.8067 10.9251 17.514C10.7422 17.2213 10.6447 16.8834 10.6437 16.5383C10.6437 16.0462 10.8391 15.5742 11.1871 15.2263C11.5351 14.8783 12.007 14.6828 12.4991 14.6828C12.9912 14.6828 13.4632 14.8783 13.8111 15.2263C14.1591 15.5742 14.3546 16.0462 14.3546 16.5383C14.3546 17.2664 13.9312 17.8898 13.3202 18.1945L14.2749 21.0594Z" fill="#5D5D5D"/>
</svg>
