<svg width="20" height="21" viewBox="0 0 20 21" fill="none" xmlns="http://www.w3.org/2000/svg">
<path fill-rule="evenodd" clip-rule="evenodd" d="M10.0003 2.5C8.5229 2.5 7.10599 3.08691 6.06129 4.1316C5.01659 5.1763 4.42969 6.59322 4.42969 8.07064C4.42969 9.34075 5.0536 10.8426 5.96384 12.4536C6.88523 14.0836 8.15533 15.9152 9.54688 17.8649L10.0003 18.5L10.4538 17.8649C11.8464 15.9152 13.1154 14.0836 14.0368 12.4536C14.9471 10.8426 15.571 9.34075 15.571 8.07064C15.571 7.3391 15.4269 6.61471 15.1469 5.93885C14.867 5.26299 14.4567 4.64889 13.9394 4.1316C13.4221 3.61432 12.808 3.20399 12.1321 2.92404C11.4563 2.64409 10.7319 2.5 10.0003 2.5ZM10.0003 5.28532C9.26162 5.28532 8.55316 5.57877 8.03081 6.10112C7.50846 6.62347 7.21501 7.33193 7.21501 8.07064C7.21501 8.80936 7.50846 9.51781 8.03081 10.0402C8.55316 10.5625 9.26162 10.856 10.0003 10.856C10.739 10.856 11.4475 10.5625 11.9698 10.0402C12.4922 9.51781 12.7857 8.80936 12.7857 8.07064C12.7857 7.33193 12.4922 6.62347 11.9698 6.10112C11.4475 5.57877 10.739 5.28532 10.0003 5.28532Z" fill="#6F6F6F"/>
</svg>
