<svg width="40" height="40" viewBox="0 0 40 40" fill="none" xmlns="http://www.w3.org/2000/svg">
<path fill-rule="evenodd" clip-rule="evenodd" d="M19.9999 2.5C19.3368 2.5 18.7009 2.76339 18.2321 3.23223C17.7633 3.70107 17.4999 4.33696 17.4999 5V5.25C14.6765 5.82633 12.1389 7.36045 10.3166 9.59274C8.49433 11.825 7.49929 14.6184 7.49987 17.5V27.5L4.48737 30.82C3.02987 32.4275 4.16987 35 6.33737 35H15.6699C16.1087 35.76 16.7399 36.3912 17.5 36.83C18.2601 37.2688 19.1222 37.4998 19.9999 37.4998C20.8775 37.4998 21.7397 37.2688 22.4998 36.83C23.2598 36.3912 23.891 35.76 24.3299 35H33.6624C35.8299 35 36.9699 32.425 35.5124 30.82L32.4999 27.5V17.5C32.5005 14.6184 31.5054 11.825 29.6831 9.59274C27.8609 7.36045 25.3233 5.82633 22.4999 5.25V5C22.4999 4.33696 22.2365 3.70107 21.7676 3.23223C21.2988 2.76339 20.6629 2.5 19.9999 2.5ZM11.2499 28.95L10.2749 30.02L9.15987 31.25H30.8399L29.7224 30.02L28.7499 28.9475V17.5C28.7499 16.3509 28.5235 15.2131 28.0838 14.1515C27.6441 13.0899 26.9996 12.1253 26.1871 11.3128C25.3745 10.5003 24.41 9.85578 23.3484 9.41605C22.2868 8.97632 21.1489 8.75 19.9999 8.75C18.8508 8.75 17.713 8.97632 16.6514 9.41605C15.5898 9.85578 14.6252 10.5003 13.8127 11.3128C13.0002 12.1253 12.3557 13.0899 11.9159 14.1515C11.4762 15.2131 11.2499 16.3509 11.2499 17.5V28.95Z" fill="#F8F8F8"/>
</svg>
