<svg width="35" height="37" viewBox="0 0 35 37" fill="none" xmlns="http://www.w3.org/2000/svg">
<path fill-rule="evenodd" clip-rule="evenodd" d="M29.4583 3.59925V9.16671C30.1313 9.16671 30.7977 9.29927 31.4195 9.55683C32.0413 9.81438 32.6063 10.1919 33.0822 10.6678C33.5581 11.1437 33.9356 11.7087 34.1931 12.3305C34.4507 12.9522 34.5833 13.6187 34.5833 14.2917C34.5833 14.9647 34.4507 15.6312 34.1931 16.253C33.9356 16.8748 33.5581 17.4397 33.0822 17.9156C32.6063 18.3915 32.0413 18.769 31.4195 19.0266C30.7977 19.2841 30.1313 19.4167 29.4583 19.4167V24.5417C29.4583 27.357 26.2449 28.9646 23.9916 27.275L20.4724 24.634C18.5912 23.2236 16.401 22.2819 14.0833 21.887V26.7455C14.0835 27.8623 13.6799 28.9415 12.9471 29.7842C12.2142 30.6269 11.2014 31.1763 10.0954 31.3311C8.98933 31.4859 7.86462 31.2357 6.92856 30.6265C5.9925 30.0174 5.30819 29.0904 5.00177 28.0165L2.31968 18.6275C1.35451 17.4876 0.726383 16.1012 0.505923 14.624C0.285462 13.1468 0.481402 11.6374 1.07172 10.2654C1.66203 8.89344 2.62332 7.71333 3.84753 6.85772C5.07174 6.00211 6.51033 5.50492 8.0016 5.42204L13.1573 5.13504C15.68 4.99492 18.1332 4.25777 20.3153 2.98425L24.3196 0.647251C26.5985 -0.680124 29.4583 0.961584 29.4583 3.59925ZM6.62468 21.2583L8.28689 27.0786C8.36688 27.3603 8.54612 27.6036 8.79149 27.7635C9.03686 27.9234 9.33179 27.9891 9.62183 27.9485C9.91187 27.9079 10.1774 27.7637 10.3695 27.5426C10.5615 27.3215 10.667 27.0383 10.6666 26.7455V21.6034L8.0016 21.4548C7.53805 21.4268 7.07755 21.3611 6.62468 21.2583ZM26.0416 3.59925L22.0356 5.93796C19.6028 7.3588 16.8885 8.22994 14.0833 8.49021V18.431C17.1361 18.8513 20.0419 20.042 22.5224 21.9006L26.0416 24.5417V3.59925ZM10.6666 8.69521L8.18951 8.83187C7.03715 8.8955 5.95051 9.38883 5.1441 10.2145C4.33768 11.0401 3.87008 12.1381 3.83361 13.2916C3.79714 14.4451 4.19445 15.5704 4.9471 16.4454C5.69975 17.3203 6.75306 17.8813 7.8991 18.0176L8.18951 18.0432L10.6666 18.1799V8.69521ZM29.4583 12.5834V16C29.8937 15.9996 30.3125 15.8328 30.6291 15.5339C30.9457 15.235 31.1362 14.8265 31.1618 14.3918C31.1873 13.9572 31.0459 13.5291 30.7664 13.1952C30.4869 12.8613 30.0905 12.6468 29.6581 12.5953L29.4583 12.5834Z" fill="#F8F8F8"/>
</svg>
