<svg width="36" height="36" viewBox="0 0 36 36" fill="none" xmlns="http://www.w3.org/2000/svg">
<path d="M31.5001 28.5L23.7691 20.769C25.1983 18.5968 25.7708 15.9716 25.3756 13.4016C24.9804 10.8317 23.6457 8.49972 21.6299 6.8573C19.6141 5.21489 17.0606 4.37884 14.4638 4.51102C11.867 4.6432 9.41156 5.73422 7.57295 7.57282C5.73434 9.41143 4.64333 11.8668 4.51114 14.4637C4.37896 17.0605 5.21501 19.614 6.85742 21.6298C8.49984 23.6456 10.8318 24.9803 13.4018 25.3755C15.9717 25.7707 18.5969 25.1982 20.7691 23.769L28.5001 31.5L31.5001 28.5ZM7.50009 15C7.50009 10.8645 10.8646 7.49997 15.0001 7.49997C19.1356 7.49997 22.5001 10.8645 22.5001 15C22.5001 19.1355 19.1356 22.5 15.0001 22.5C10.8646 22.5 7.50009 19.1355 7.50009 15Z" fill="#6F6F6F"/>
</svg>
