<svg width="20" height="21" viewBox="0 0 20 21" fill="none" xmlns="http://www.w3.org/2000/svg">
<path d="M9.99986 5.14286C8.72841 5.14286 7.48551 5.51989 6.42834 6.22627C5.37117 6.93265 4.5472 7.93665 4.06064 9.11132C3.57407 10.286 3.44677 11.5786 3.69482 12.8256C3.94286 14.0726 4.55512 15.2181 5.45418 16.1171C6.35323 17.0162 7.49869 17.6284 8.74571 17.8765C9.99273 18.1245 11.2853 17.9972 12.46 17.5107C13.6346 17.0241 14.6386 16.2001 15.345 15.143C16.0514 14.0858 16.4284 12.8429 16.4284 11.5714C16.4265 9.86706 15.7486 8.23306 14.5434 7.02789C13.3382 5.82273 11.7042 5.14481 9.99986 5.14286ZM13.0575 9.27187L10.3789 11.9504C10.3291 12.0002 10.27 12.0397 10.205 12.0666C10.14 12.0936 10.0703 12.1074 9.99986 12.1074C9.92947 12.1074 9.85977 12.0936 9.79474 12.0666C9.72971 12.0397 9.67062 12.0002 9.62084 11.9504C9.57107 11.9007 9.53159 11.8416 9.50465 11.7766C9.47771 11.7115 9.46385 11.6418 9.46385 11.5714C9.46385 11.501 9.47771 11.4313 9.50465 11.3663C9.53159 11.3013 9.57107 11.2422 9.62084 11.1924L12.2994 8.51384C12.3492 8.46407 12.4083 8.42458 12.4733 8.39765C12.5383 8.37071 12.608 8.35684 12.6784 8.35684C12.7488 8.35684 12.8185 8.37071 12.8836 8.39765C12.9486 8.42458 13.0077 8.46407 13.0575 8.51384C13.1072 8.56361 13.1467 8.6227 13.1736 8.68773C13.2006 8.75277 13.2144 8.82247 13.2144 8.89286C13.2144 8.96325 13.2006 9.03295 13.1736 9.09798C13.1467 9.16301 13.1072 9.2221 13.0575 9.27187ZM7.85701 3.53571C7.85701 3.39363 7.91345 3.25737 8.01391 3.15691C8.11438 3.05644 8.25064 3 8.39272 3H11.607C11.7491 3 11.8853 3.05644 11.9858 3.15691C12.0863 3.25737 12.1427 3.39363 12.1427 3.53571C12.1427 3.67779 12.0863 3.81406 11.9858 3.91452C11.8853 4.01499 11.7491 4.07143 11.607 4.07143H8.39272C8.25064 4.07143 8.11438 4.01499 8.01391 3.91452C7.91345 3.81406 7.85701 3.67779 7.85701 3.53571Z" fill="#6F6F6F"/>
</svg>
