<svg width="40" height="40" viewBox="0 0 40 40" fill="none" xmlns="http://www.w3.org/2000/svg">
<path d="M9.75016 28.5C11.1668 27.4167 12.7502 26.5628 14.5002 25.9384C16.2502 25.3139 18.0835 25.0012 20.0002 25C21.9168 24.9989 23.7502 25.3117 25.5002 25.9384C27.2502 26.565 28.8335 27.4189 30.2502 28.5C31.2224 27.3612 31.9796 26.0695 32.5218 24.625C33.0641 23.1806 33.3346 21.6389 33.3335 20C33.3335 16.3056 32.0352 13.1595 29.4385 10.5617C26.8418 7.96393 23.6957 6.6656 20.0002 6.66671C16.3046 6.66782 13.1585 7.96671 10.5618 10.5634C7.96517 13.16 6.66683 16.3056 6.66683 20C6.66683 21.6389 6.93794 23.1806 7.48016 24.625C8.02239 26.0695 8.77905 27.3612 9.75016 28.5ZM20.0002 21.6667C18.3613 21.6667 16.9791 21.1045 15.8535 19.98C14.7279 18.8556 14.1657 17.4734 14.1668 15.8334C14.1679 14.1934 14.7307 12.8112 15.8552 11.6867C16.9796 10.5623 18.3613 10 20.0002 10C21.6391 10 23.0213 10.5628 24.1468 11.6884C25.2724 12.8139 25.8346 14.1956 25.8335 15.8334C25.8324 17.4712 25.2702 18.8534 24.1468 19.98C23.0235 21.1067 21.6413 21.6689 20.0002 21.6667ZM20.0002 36.6667C17.6946 36.6667 15.5279 36.2289 13.5002 35.3534C11.4724 34.4778 9.7085 33.2906 8.2085 31.7917C6.7085 30.2928 5.52128 28.5289 4.64683 26.5C3.77239 24.4712 3.33461 22.3045 3.3335 20C3.33239 17.6956 3.77016 15.5289 4.64683 13.5C5.5235 11.4712 6.71072 9.70726 8.2085 8.20837C9.70628 6.70949 11.4702 5.52226 13.5002 4.64671C15.5302 3.77115 17.6968 3.33337 20.0002 3.33337C22.3035 3.33337 24.4702 3.77115 26.5002 4.64671C28.5302 5.52226 30.2941 6.70949 31.7918 8.20837C33.2896 9.70726 34.4774 11.4712 35.3552 13.5C36.2329 15.5289 36.6702 17.6956 36.6668 20C36.6635 22.3045 36.2257 24.4712 35.3535 26.5C34.4813 28.5289 33.2941 30.2928 31.7918 31.7917C30.2896 33.2906 28.5257 34.4784 26.5002 35.355C24.4746 36.2317 22.3079 36.6689 20.0002 36.6667ZM20.0002 33.3334C21.4724 33.3334 22.8613 33.1184 24.1668 32.6884C25.4724 32.2584 26.6668 31.64 27.7502 30.8334C26.6668 30.0278 25.4724 29.41 24.1668 28.98C22.8613 28.55 21.4724 28.3345 20.0002 28.3334C18.5279 28.3323 17.1391 28.5478 15.8335 28.98C14.5279 29.4123 13.3335 30.03 12.2502 30.8334C13.3335 31.6389 14.5279 32.2573 15.8335 32.6884C17.1391 33.1195 18.5279 33.3345 20.0002 33.3334ZM20.0002 18.3334C20.7224 18.3334 21.3196 18.0973 21.7918 17.625C22.2641 17.1528 22.5002 16.5556 22.5002 15.8334C22.5002 15.1112 22.2641 14.5139 21.7918 14.0417C21.3196 13.5695 20.7224 13.3334 20.0002 13.3334C19.2779 13.3334 18.6807 13.5695 18.2085 14.0417C17.7363 14.5139 17.5002 15.1112 17.5002 15.8334C17.5002 16.5556 17.7363 17.1528 18.2085 17.625C18.6807 18.0973 19.2779 18.3334 20.0002 18.3334Z" fill="#F8F8F8"/>
</svg>
